/* XPM */
static char * clock_xpm[] = {
"22 22 2 1",
" 	c None",
".	c #FFFFFF",
"        ......        ",
"     ............     ",
"    ....       ...    ",
"   ...          ...   ",
"  ...     .      ...  ",
" ...      .       ... ",
" ..       .        .. ",
" ..       .         . ",
"..        .    ..   ..",
"..        .   ..    ..",
"..        ....      ..",
"..        ...       ..",
"..                  ..",
"..                  ..",
" ..                .. ",
" ..                .. ",
" ...              ... ",
"  ...            ...  ",
"   ...          ...   ",
"    ....      ....    ",
"     ............     ",
"        ......        "};
